<svg xmlns="http://www.w3.org/2000/svg" viewBox="0 0 128 128" width="128" height="128">
  <path d="M64 10 L108 24 L108 72 Q108 104 64 120 Q20 104 20 72 L20 24 Z"
        fill="#3C3489" stroke="#9F99E8" stroke-width="1.5" stroke-linejoin="round"/>
  <rect x="32" y="36" width="64" height="14" rx="4" fill="#534AB7" opacity="0.6"/>
  <rect x="38" y="40" width="28" height="3" rx="1.5" fill="#D0CCFF" opacity="0.8"/>
  <rect x="38" y="45" width="18" height="2" rx="1" fill="#AFA9EC" opacity="0.5"/>
  <rect x="80" y="39" width="10" height="5" rx="2.5" fill="#9F99E8" opacity="0.7"/>
  <rect x="32" y="56" width="64" height="14" rx="4" fill="#6560CC" opacity="0.85"/>
  <rect x="38" y="60" width="22" height="3" rx="1.5" fill="#E0DEFF" opacity="0.9"/>
  <rect x="38" y="65" width="14" height="2" rx="1" fill="#C4C0F5" opacity="0.6"/>
  <rect x="80" y="59" width="10" height="5" rx="2.5" fill="#C4C0F5" opacity="0.8"/>
  <rect x="32" y="76" width="64" height="14" rx="4" fill="#8F8AE8"/>
  <rect x="38" y="80" width="26" height="3" rx="1.5" fill="white" opacity="0.95"/>
  <rect x="38" y="85" width="16" height="2" rx="1" fill="white" opacity="0.6"/>
  <rect x="80" y="79" width="10" height="5" rx="2.5" fill="white" opacity="0.9"/>
  <line x1="40" y1="101" x2="88" y2="101" stroke="#C4C0F5" stroke-width="2" stroke-linecap="round" opacity="0.7"/>
  <line x1="47" y1="108" x2="81" y2="108" stroke="#C4C0F5" stroke-width="2" stroke-linecap="round" opacity="0.85"/>
  <line x1="55" y1="115" x2="73" y2="115" stroke="#E0DEFF" stroke-width="2.5" stroke-linecap="round"/>
</svg>
