<svg xmlns="http://www.w3.org/2000/svg" viewBox="0 0 64 64"><rect x="8" y="30" width="48" height="24" rx="4" fill="#e2e8f0"/><rect x="10" y="32" width="8" height="20" rx="1.5" fill="#ef4444"/><rect x="19" y="32" width="8" height="20" rx="1.5" fill="#facc15"/><rect x="28" y="32" width="8" height="20" rx="1.5" fill="#22c55e"/><rect x="37" y="32" width="8" height="20" rx="1.5" fill="#3b82f6"/><rect x="46" y="32" width="8" height="20" rx="1.5" fill="#a855f7"/><path d="M40 8v12a4 4 0 1 1-2-3.4V10l10-2v8a4 4 0 1 1-2-3.4V6z" fill="#1e293b"/><path d="M14 12l1.4 3.4 3.4 1.4-3.4 1.4-1.4 3.4-1.4-3.4-3.4-1.4 3.4-1.4z" fill="#facc15"/></svg>
